HIERARCHY
ROOT Hips
{
    OFFSET 0.000000 0.000000 0.000000
    CHANNELS 6 Xposition Yposition Zposition Zrotation Xrotation Yrotation
    JOINT Spine
    {
        OFFSET -0.000000 7.236184 0.000000
        CHANNELS 3 Zrotation Xrotation Yrotation
        JOINT Spine1
        {
            OFFSET -0.000000 20.420147 0.000000
            CHANNELS 3 Zrotation Xrotation Yrotation
            JOINT Neck
            {
                OFFSET -0.000000 20.336288 1.848754
                CHANNELS 3 Zrotation Xrotation Yrotation
                JOINT Head
                {
                    OFFSET -0.000000 12.354461 -1.764923
                    CHANNELS 3 Zrotation Xrotation Yrotation
                    End Site
                    {
                        OFFSET -0.000000 22.061537 0.000000
                    }
                }
            }
            JOINT LeftShoulder
            {
                OFFSET 3.573296 18.396038 -0.314103
                CHANNELS 3 Zrotation Xrotation Yrotation
                JOINT LeftArm
                {
                    OFFSET 10.880760 0.000000 0.000000
                    CHANNELS 3 Zrotation Xrotation Yrotation
                    JOINT LeftForeArm
                    {
                        OFFSET 27.185530 0.000000 0.000000
                        CHANNELS 3 Zrotation Xrotation Yrotation
                        JOINT LeftHand
                        {
                            OFFSET 27.825975 0.000000 0.000000
                            CHANNELS 3 Zrotation Xrotation Yrotation
                            End Site
                            {
                                OFFSET 13.236923 0.000000 0.000000
                            }
                        }
                    }
                }
            }
            JOINT RightShoulder
            {
                OFFSET -3.474926 18.396038 -0.314103
                CHANNELS 3 Zrotation Xrotation Yrotation
                JOINT RightArm
                {
                    OFFSET -10.880760 0.000000 0.000000
                    CHANNELS 3 Zrotation Xrotation Yrotation
                    JOINT RightForeArm
                    {
                        OFFSET -27.185530 0.000000 0.000000
                        CHANNELS 3 Zrotation Xrotation Yrotation
                        JOINT RightHand
                        {
                            OFFSET -27.825975 0.000000 0.000000
                            CHANNELS 3 Zrotation Xrotation Yrotation
                            End Site
                            {
                                OFFSET -13.236923 0.000000 0.000000
                            }
                        }
                    }
                }
            }
        }
    }
    JOINT LeftUpLeg
    {
        OFFSET 8.824615 0.000000 0.000000
        CHANNELS 3 Zrotation Xrotation Yrotation
        JOINT LeftLeg
        {
            OFFSET -0.000000 -35.111282 0.000000
            CHANNELS 3 Zrotation Xrotation Yrotation
            JOINT LeftFoot
            {
                OFFSET -0.000000 -42.324711 0.000000
                CHANNELS 3 Zrotation Xrotation Yrotation
                JOINT LeftToeBase
                {
                    OFFSET -0.000000 -5.735999 13.236923
                    CHANNELS 3 Zrotation Xrotation Yrotation
                    End Site
                    {
                        OFFSET -0.000000 0.000000 3.529846
                    }
                }
            }
        }
    }
    JOINT RightUpLeg
    {
        OFFSET -8.824615 0.000000 0.000000
        CHANNELS 3 Zrotation Xrotation Yrotation
        JOINT RightLeg
        {
            OFFSET -0.000000 -35.111282 0.000000
            CHANNELS 3 Zrotation Xrotation Yrotation
            JOINT RightFoot
            {
                OFFSET -0.000000 -42.324711 0.000000
                CHANNELS 3 Zrotation Xrotation Yrotation
                JOINT RightToeBase
                {
                    OFFSET -0.000000 -5.735999 13.236923
                    CHANNELS 3 Zrotation Xrotation Yrotation
                    End Site
                    {
                        OFFSET -0.000000 0.000000 3.529846
                    }
                }
            }
        }
    }
}
MOTION
Frames:    9
Frame Time:    0.008333
-5.879025    81.935410    99.890877    -0.290942    -9.978909    -176.104370    -2.066139    -12.829038    0.020255    0.121761    5.600872    0.246576    3.410518    3.148016    -0.912821    2.081681    0.481234    -1.072653    0.358843    17.918287    -1.477319    -53.154350    41.754341    -32.226948    0.250304    -7.655454    -16.658876    18.798555    -7.017992    3.660007    6.417669    18.641432    -5.591114    50.351345    40.454235    29.132904    -2.552371    -9.476645    20.361752    -16.757921    -8.267481    -5.192930    1.716365    -10.106415    -3.009237    -1.110166    12.568476    -4.732141    -0.879131    -10.458949    -5.501509    -0.703536    -1.254821    0.781626    -3.152774    -4.770789    2.341944    3.435690    4.544756    4.231030    -1.494641    -6.962049    -13.190856    0.465156    -0.545254    -0.503479    
-5.856495    81.953697    99.969315    -0.252586    -10.182019    -176.012329    -2.072793    -12.680134    0.044671    0.096885    5.669500    0.270414    3.423947    3.097176    -0.951996    1.995282    0.367982    -1.126619    0.311833    17.926880    -1.470683    -53.271320    41.327789    -31.938126    0.308782    -7.709230    -16.719681    18.783676    -7.070780    3.616717    6.436080    18.642927    -5.531319    50.247169    40.415421    29.171659    -2.513951    -9.606533    20.797009    -16.772827    -8.382436    -5.273207    1.723717    -10.447489    -3.111590    -1.092716    12.675357    -4.696705    -0.914156    -10.432655    -5.534387    -0.702060    -1.221791    0.779940    -3.120329    -5.026122    2.300328    3.429105    4.548636    4.147413    -1.477242    -6.938424    -13.157568    0.472539    -0.549377    -0.511473
-5.831857    81.973228    100.056435    -0.214199    -10.393979    -175.919815    -2.079618    -12.518756    0.074164    0.070034    5.751620    0.298892    3.444747    3.059644    -0.993169    1.888751    0.270892    -1.186497    0.260307    17.933334    -1.463531    -53.385685    40.857174    -31.626989    0.364258    -7.759324    -16.764366    18.786371    -7.119566    3.574589    6.454902    18.643427    -5.461227    50.121029    40.378819    29.223640    -2.475485    -9.748787    21.282919    -16.786438    -8.507999    -5.360728    1.728466    -10.807212    -3.219169    -1.073234    12.787237    -4.654191    -0.952562    -10.398958    -5.569947    -0.699176    -1.184106    0.776681    -3.088970    -5.298076    2.255018    3.423228    4.554785    4.067720    -1.461913    -6.906906    -13.125510    0.477655    -0.551076    -0.517013
-5.804875    81.994133    100.153175    -0.175383    -10.615993    -175.826981    -2.086513    -12.344007    0.108891    0.041526    5.848331    0.332552    3.474630    3.037060    -1.036709    1.759514    0.195792    -1.253209    0.204142    17.936651    -1.456612    -53.495811    40.339046    -31.291718    0.415951    -7.805083    -16.788687    18.814581    -7.162990    3.537174    6.473733    18.642969    -5.380054    49.970215    40.345509    29.290798    -2.438526    -9.903608    21.826666    -16.799503    -8.643921    -5.455279    1.730759    -11.187644    -3.332588    -1.051552    12.904407    -4.602410    -0.994832    -10.357007    -5.609497    -0.694745    -1.141885    0.771700    -3.058190    -5.588782    2.206668    3.417767    4.563493    3.992328    -1.448646    -6.866544    -13.095201    0.480459    -0.550913    -0.520047
-5.775423    82.016418    100.260139    -0.135926    -10.848643    -175.734390    -2.093297    -12.155993    0.149152    0.011460    5.960311    0.371433    3.516025    3.031548    -1.082736    1.604927    0.148984    -1.327503    0.144057    17.936277    -1.450891    -53.599140    39.773335    -30.932823    0.464224    -7.846293    -16.787569    18.877344    -7.199805    3.509465    6.492315    18.641556    -5.287437    49.792095    40.318512    29.375124    -2.406020    -10.071116    22.433809    -16.812952    -8.789697    -5.556476    1.730685    -11.589631    -3.450991    -1.027448    13.026696    -4.541478    -1.040928    -10.306122    -5.653115    -0.688784    -1.094897    0.765013    -3.027476    -5.899783    2.155882    3.412144    4.575271    3.921207    -1.436652    -6.816520    -13.066263    0.480826    -0.548693    -0.520443
-5.743305    82.040169    100.378166    -0.095378    -11.093040    -175.642242    -2.099829    -11.954663    0.194839    -0.019802    6.088624    0.415810    3.570952    3.044257    -1.131464    1.422771    0.138025    -1.410153    0.080215    17.931263    -1.447312    -53.692654    39.159485    -30.550119    0.509392    -7.882759    -16.756031    18.985123    -7.228571    3.496994    6.510053    18.638941    -5.183043    49.583927    40.300716    29.478743    -2.380815    -10.251142    23.111319    -16.827633    -8.944417    -5.663751    1.728505    -12.014943    -3.573095    -1.000521    13.154135    -4.471540    -1.091150    -10.245455    -5.701531    -0.681328    -1.042388    0.756659    -2.996319    -6.233185    2.103786    3.406060    4.591000    3.855436    -1.425571    -6.756456    -13.040208    0.478800    -0.544884    -0.518248
-5.708305    82.065460    100.508270    -0.053364    -11.350878    -175.550613    -2.106138    -11.739697    0.246120    -0.052030    6.234017    0.465660    3.641853    3.077052    -1.183261    1.210809    0.169953    -1.501972    0.013612    17.921122    -1.447048    -53.773453    38.497196    -30.143604    0.552493    -7.914481    -16.689026    19.150450    -7.247666    3.506257    6.526391    18.634869    -5.066618    49.342278    40.296131    29.604048    -2.366235    -10.443985    23.867620    -16.844393    -9.107487    -5.776553    1.724463    -12.466200    -3.697880    -0.970607    13.287088    -4.392768    -1.145700    -10.174267    -5.755431    -0.672429    -0.984820    0.746696    -2.964267    -6.592165    2.051313    3.399245    4.611579    3.794764    -1.415126    -6.685449    -13.017233    0.474430    -0.539332    -0.513514
-5.670451    82.092194    100.650368    -0.009527    -11.621894    -175.460022    -2.112109    -11.512862    0.302542    -0.084441    6.396489    0.520317    3.730379    3.130326    -1.238051    0.968862    0.252126    -1.602854    -0.054868    17.905151    -1.450920    -53.837379    37.793102    -29.716732    0.595160    -7.941472    -16.582630    19.385235    -7.255258    3.544319    6.540428    18.629160    -4.939379    49.065506    40.309120    29.753187    -2.366196    -10.648328    24.704931    -16.863312    -9.276782    -5.893013    1.719035    -12.942529    -3.822612    -0.937389    13.424741    -4.306670    -1.204535    -10.092318    -5.815278    -0.662254    -0.922599    0.735313    -2.930710    -6.977108    1.999772    3.391181    4.638263    3.739797    -1.405146    -6.603830    -12.998243    0.467848    -0.532231    -0.506384
-5.629264    82.120644    100.806473    0.036941    -11.910087    -175.369598    -2.117923    -11.272392    0.364141    -0.116910    6.577516    0.579888    3.839174    3.205555    -1.296661    0.694313    0.391973    -1.713830    -0.125152    17.882988    -1.459631    -53.881142    37.044083    -29.267136    0.639726    -7.963688    -16.431892    19.705727    -7.249070    3.618117    6.552069    18.621351    -4.801063    48.747700    40.344021    29.929905    -2.384130    -10.865473    25.637693    -16.884020    -9.452303    -6.012238    1.712447    -13.450277    -3.946481    -0.900224    13.568247    -4.213753    -1.268290    -9.998300    -5.882206    -0.650952    -0.855124    0.722676    -2.894965    -7.394383    1.949751    3.381520    4.672704    3.690231    -1.395398    -6.510702    -12.983998    0.459249    -0.523925    -0.497072
